<svg width="42" height="42" viewBox="0 0 42 42" fill="none" xmlns="http://www.w3.org/2000/svg">
<path fill-rule="evenodd" clip-rule="evenodd" d="M20.8969 0C32.4382 0 41.7937 9.59151 41.7937 21.4254C41.7937 30.8896 35.813 38.9182 27.5149 41.7539C26.4554 41.965 26.0793 41.2959 26.0793 40.7254C26.0793 40.0191 26.1044 37.7122 26.1044 34.8451C26.1044 32.8474 25.4357 31.5435 24.6855 30.879C29.3392 30.3482 34.2291 28.5363 34.2291 20.3071C34.2291 17.9667 33.4183 16.0568 32.0767 14.5564C32.294 14.0152 33.0108 11.8359 31.8719 8.88525C31.8719 8.88525 30.1207 8.31115 26.1315 11.0821C24.4619 10.6077 22.6731 10.369 20.8969 10.3607C19.1206 10.369 17.334 10.6077 15.6664 11.0821C11.673 8.31115 9.91766 8.88525 9.91766 8.88525C8.78296 11.8359 9.49972 14.0152 9.71496 14.5564C8.37965 16.0568 7.56258 17.9667 7.56258 20.3071C7.56258 28.5154 12.442 30.3551 17.0832 30.8963C16.4855 31.4313 15.9443 32.375 15.7562 33.7605C14.5651 34.308 11.5392 35.2555 9.67524 31.981C9.67524 31.981 8.56981 29.9224 6.47176 29.7719C6.47176 29.7719 4.43431 29.7448 6.32966 31.0739C6.32966 31.0739 7.69841 31.7321 8.64921 34.2084C8.64921 34.2084 9.87587 38.0325 15.6894 36.7369C15.6998 38.5277 15.7186 40.2155 15.7186 40.7254C15.7186 41.2917 15.3341 41.9545 14.2914 41.756C5.98695 38.9244 0 30.8917 0 21.4254C0 9.59151 9.35762 0 20.8969 0Z" fill="black"/>
</svg>
