<svg width="43" height="43" viewBox="0 0 43 43" fill="none" xmlns="http://www.w3.org/2000/svg">
<path fill-rule="evenodd" clip-rule="evenodd" d="M21.5 0.96582C33.0414 0.96582 42.3969 10.5573 42.3969 22.3912C42.3969 31.8554 36.4162 39.884 28.1181 42.7198C27.0586 42.9308 26.6824 42.2617 26.6824 41.6912C26.6824 40.9849 26.7075 38.678 26.7075 35.8109C26.7075 33.8132 26.0388 32.5093 25.2886 31.8448C29.9424 31.314 34.8322 29.5021 34.8322 21.2729C34.8322 18.9325 34.0214 17.0226 32.6798 15.5222C32.8972 14.981 33.6139 12.8017 32.475 9.85107C32.475 9.85107 30.7239 9.27697 26.7347 12.0479C25.065 11.5735 23.2762 11.3349 21.5 11.3265C19.7238 11.3349 17.9371 11.5735 16.2695 12.0479C12.2761 9.27697 10.5208 9.85107 10.5208 9.85107C9.38611 12.8017 10.1029 14.981 10.3181 15.5222C8.9828 17.0226 8.16573 18.9325 8.16573 21.2729C8.16573 29.4812 13.0451 31.3209 17.6863 31.8622C17.0887 32.3971 16.5475 33.3408 16.3594 34.7263C15.1683 35.2738 12.1424 36.2213 10.2784 32.9468C10.2784 32.9468 9.17295 30.8882 7.07491 30.7377C7.07491 30.7377 5.03746 30.7107 6.93281 32.0397C6.93281 32.0397 8.30155 32.698 9.25236 35.1742C9.25236 35.1742 10.479 38.9983 16.2925 37.7027C16.303 39.4935 16.3218 41.1814 16.3218 41.6912C16.3218 42.2575 15.9373 42.9203 14.8945 42.7218C6.5901 39.8903 0.603149 31.8575 0.603149 22.3912C0.603149 10.5573 9.96077 0.96582 21.5 0.96582Z" fill="#15FF00"/>
</svg>
