<svg width="39" height="39" viewBox="0 0 39 39" fill="none" xmlns="http://www.w3.org/2000/svg">
<path d="M35.6039 0.361834H3.63894C3.22694 0.342537 2.81515 0.404667 2.42719 0.544705C2.03923 0.684742 1.68271 0.899909 1.378 1.17788C1.07332 1.45587 0.826432 1.79123 0.651523 2.16472C0.476614 2.53825 0.377079 2.94258 0.358643 3.3546V35.3892C0.382778 36.2514 0.73614 37.0719 1.34616 37.6817C1.95617 38.2917 2.77658 38.6451 3.63894 38.6693H35.6039C36.4421 38.632 37.2325 38.2676 37.8055 37.6544C38.3785 37.0413 38.6883 36.2282 38.6687 35.3892V3.3546C38.6756 2.95357 38.6004 2.55539 38.4479 2.18443C38.2954 1.81349 38.0686 1.47761 37.7816 1.19737C37.4947 0.917148 37.1535 0.698509 36.779 0.554832C36.4046 0.411156 36.0047 0.345482 35.6039 0.361834ZM12.3305 32.3007H6.75163V15.23H12.3305V32.3007ZM9.67277 12.6441C9.28347 12.6577 8.89555 12.5906 8.53343 12.4471C8.17128 12.3036 7.84272 12.0868 7.56842 11.8102C7.2941 11.5337 7.07992 11.2034 6.93937 10.8401C6.7988 10.4768 6.73489 10.0884 6.75163 9.69927C6.73441 9.3059 6.79961 8.91329 6.94306 8.54662C7.08651 8.17992 7.30502 7.84727 7.58456 7.57C7.86413 7.2927 8.19855 7.07691 8.5664 6.93646C8.93427 6.79599 9.32743 6.73398 9.72066 6.75438C10.11 6.74083 10.4979 6.80789 10.86 6.9514C11.2221 7.09491 11.5507 7.31176 11.825 7.58831C12.0993 7.86487 12.3135 8.19515 12.4541 8.55842C12.5946 8.9217 12.6585 9.31011 12.6418 9.69927C12.659 10.0926 12.5938 10.4852 12.4504 10.8519C12.3069 11.2186 12.0884 11.5513 11.8089 11.8285C11.5293 12.1058 11.1949 12.3216 10.827 12.4621C10.4592 12.6025 10.066 12.6645 9.67277 12.6441ZM32.2996 32.3007H26.6968V22.9633C26.6968 20.7367 25.9066 19.2044 23.9193 19.2044C23.302 19.2096 22.7013 19.4057 22.1999 19.7658C21.6983 20.1259 21.3205 20.6323 21.1179 21.2155C20.9623 21.6527 20.8971 22.1169 20.9263 22.5802V32.3007H15.4193V15.23H20.9263V17.6242C21.416 16.7247 22.1446 15.9782 23.032 15.4668C23.9193 14.9556 24.9307 14.6996 25.9545 14.7271C29.57 14.7271 32.2996 17.1214 32.2996 22.2211V32.3007Z" fill="#15FF00"/>
</svg>
