<svg width="39" height="39" viewBox="0 0 39 39" fill="none" xmlns="http://www.w3.org/2000/svg">
<path d="M35.2452 0.0034358H3.2803C2.8683 -0.0158616 2.45651 0.0462689 2.06855 0.186306C1.68059 0.326344 1.32407 0.541511 1.01936 0.819479C0.714674 1.09747 0.46779 1.43283 0.292881 1.80633C0.117971 2.17985 0.0184367 2.58418 0 2.9962V35.0308C0.0241353 35.893 0.377497 36.7135 0.987513 37.3233C1.59753 37.9333 2.41794 38.2867 3.2803 38.3109H35.2452C36.0835 38.2736 36.8739 37.9092 37.4469 37.296C38.0198 36.6829 38.3297 35.8698 38.31 35.0308V2.9962C38.317 2.59517 38.2418 2.19699 38.0893 1.82603C37.9368 1.4551 37.71 1.11921 37.4229 0.838968C37.1361 0.558749 36.7949 0.340111 36.4204 0.196434C36.0459 0.0527572 35.646 -0.0129167 35.2452 0.0034358ZM11.9719 31.9423H6.39299V14.8716H11.9719V31.9423ZM9.31413 12.2857C8.92483 12.2993 8.53691 12.2322 8.17479 12.0887C7.81264 11.9452 7.48408 11.7284 7.20978 11.4518C6.93546 11.1753 6.72128 10.845 6.58073 10.4817C6.44016 10.1184 6.37625 9.73002 6.39299 9.34087C6.37577 8.9475 6.44097 8.5549 6.58442 8.18822C6.72786 7.82152 6.94638 7.48887 7.22592 7.2116C7.50549 6.9343 7.83991 6.71851 8.20776 6.57806C8.57563 6.4376 8.96879 6.37559 9.36201 6.39599C9.75132 6.38243 10.1392 6.4495 10.5014 6.59301C10.8635 6.73651 11.1921 6.95336 11.4664 7.22991C11.7407 7.50647 11.9549 7.83675 12.0954 8.20002C12.236 8.5633 12.2999 8.95171 12.2832 9.34087C12.3004 9.73424 12.2352 10.1268 12.0917 10.4935C11.9483 10.8602 11.7298 11.1929 11.4502 11.4701C11.1707 11.7474 10.8362 11.9632 10.4684 12.1037C10.1005 12.2441 9.70736 12.3061 9.31413 12.2857ZM31.941 31.9423H26.3381V22.6049C26.3381 20.3783 25.548 18.846 23.5607 18.846C22.9434 18.8512 22.3427 19.0473 21.8413 19.4074C21.3396 19.7675 20.9618 20.2739 20.7593 20.8571C20.6036 21.2943 20.5385 21.7585 20.5677 22.2218V31.9423H15.0606V14.8716H20.5677V17.2658C21.0574 16.3663 21.786 15.6198 22.6733 15.1084C23.5607 14.5972 24.5721 14.3412 25.5959 14.3687C29.2114 14.3687 31.941 16.763 31.941 21.8627V31.9423Z" fill="black"/>
</svg>
