<svg width="61" height="61" viewBox="0 0 61 61" fill="none" xmlns="http://www.w3.org/2000/svg">
<g clip-path="url(#clip0_121_2)">
<path d="M30.209 4.06055C24.9348 4.06055 19.7791 5.62452 15.3938 8.55469C11.0085 11.4849 7.59056 15.6496 5.57222 20.5223C3.55388 25.395 3.02579 30.7568 4.05473 35.9296C5.08367 41.1024 7.62343 45.854 11.3528 49.5834C15.0822 53.3128 19.8338 55.8525 25.0066 56.8815C30.1794 57.9104 35.5412 57.3823 40.4139 55.364C45.2866 53.3457 49.4514 49.9277 52.3815 45.5424C55.3117 41.1571 56.8757 36.0014 56.8757 30.7272C56.8757 23.6548 54.0662 16.872 49.0652 11.871C44.0642 6.87006 37.2814 4.06055 30.209 4.06055ZM15.0257 23.8772C15.0257 23.2179 15.2212 22.5735 15.5874 22.0253C15.9537 21.4771 16.4743 21.0499 17.0834 20.7976C17.6925 20.5453 18.3627 20.4793 19.0093 20.6079C19.6559 20.7365 20.2499 21.054 20.716 21.5202C21.1822 21.9864 21.4997 22.5803 21.6283 23.2269C21.7569 23.8735 21.6909 24.5437 21.4386 25.1528C21.1863 25.7619 20.7591 26.2825 20.2109 26.6488C19.6627 27.0151 19.0183 27.2105 18.359 27.2105C17.475 27.2105 16.6271 26.8594 16.002 26.2342C15.3769 25.6091 15.0257 24.7613 15.0257 23.8772ZM30.4257 47.7439C27.3681 47.7479 24.3882 46.7819 21.9144 44.985C19.4406 43.1881 17.6006 40.6528 16.659 37.7439H44.1757C43.235 40.6501 41.3975 43.1834 38.927 44.9801C36.4566 46.7768 33.4803 47.7444 30.4257 47.7439ZM41.9757 27.2105C41.3164 27.2105 40.6719 27.0151 40.1238 26.6488C39.5756 26.2825 39.1484 25.7619 38.8961 25.1528C38.6438 24.5437 38.5778 23.8735 38.7064 23.2269C38.835 22.5803 39.1525 21.9864 39.6187 21.5202C40.0848 21.054 40.6788 20.7365 41.3254 20.6079C41.972 20.4793 42.6422 20.5453 43.2513 20.7976C43.8604 21.0499 44.381 21.4771 44.7472 22.0253C45.1135 22.5735 45.309 23.2179 45.309 23.8772C45.309 24.3164 45.2222 24.7512 45.0537 25.1567C44.8851 25.5622 44.6381 25.9304 44.3268 26.2401C44.0155 26.5499 43.6461 26.7951 43.2397 26.9616C42.8334 27.1281 42.3981 27.2127 41.959 27.2105H41.9757Z" fill="#15FF00"/>
</g>
<defs>
<clipPath id="clip0_121_2">
<rect width="60" height="60" fill="white" transform="translate(0.209007 0.727539)"/>
</clipPath>
</defs>
</svg>
