<svg width="61" height="61" viewBox="0 0 61 61" fill="none" xmlns="http://www.w3.org/2000/svg">
<g clip-path="url(#clip0_106_5)">
<path fill-rule="evenodd" clip-rule="evenodd" d="M30.5898 0.414062C47.1584 0.414062 60.5898 13.8455 60.5898 30.4141C60.5898 46.9826 47.1584 60.4141 30.5898 60.4141C14.0213 60.4141 0.589844 46.9826 0.589844 30.4141C0.589844 13.8455 14.0213 0.414062 30.5898 0.414062ZM37.5835 22.5124C36.6919 21.5886 35.4639 21.2642 34.1702 21.2794C32.4444 21.3 30.6015 21.9252 29.2833 22.5393C26.1288 24.0088 23.7084 26.611 21.6926 29.3928C21.3296 29.8936 21.1401 30.4848 21.7788 30.9458C22.3234 31.3389 22.7156 30.9872 23.0441 30.6365L23.0657 30.6134C23.0907 30.5865 23.1154 30.5597 23.1397 30.5333C23.5083 30.1341 23.8646 29.7208 24.2208 29.3071L24.3098 29.2037L24.3989 29.1003C25.4687 27.8601 26.5569 26.6376 27.9972 25.8083C28.8534 25.3152 29.4704 26.0767 29.3382 26.9321C29.259 27.445 28.9893 27.9282 28.8007 28.4241C28.1307 30.1854 27.4508 31.9431 26.7738 33.7018C26.0319 35.63 25.2923 37.5589 24.5729 39.4955L24.5104 39.6637L24.448 39.8316C23.8133 41.5391 23.188 43.2339 22.7744 45.0159C22.444 46.4406 21.9991 48.1692 22.6383 49.5689C23.0064 50.3752 23.7873 50.9293 24.656 51.0553C25.8408 51.2273 27.1218 51.247 28.2811 50.9832C28.8816 50.8467 29.4723 50.6685 30.0489 50.4518C31.8191 49.7863 33.431 48.7598 34.8827 47.5532C36.3596 46.3225 37.6614 44.8666 38.8485 43.3566C39.2301 42.8713 39.6924 42.3346 39.8223 41.713C39.9445 41.1299 39.424 40.2973 38.7497 40.6357C38.3936 40.8144 38.1269 41.2565 37.8674 41.5504C37.5418 41.9191 37.2098 42.2823 36.8741 42.6416C36.2026 43.36 35.5143 44.0623 34.8231 44.7613C34.3999 45.1892 33.874 45.5508 33.3336 45.8164C32.6589 46.148 32.1216 45.7803 32.1946 45.0332C32.2616 44.3471 32.4295 43.6537 32.6648 43.0042C33.6119 40.3894 34.577 37.7813 35.5346 35.1703C36.1333 33.5386 36.7289 31.9059 37.3158 30.2698C37.8644 28.7408 38.3319 27.2241 38.5294 25.6042C38.6656 24.4882 38.3763 23.334 37.5835 22.5124ZM39.5747 9.96559C36.7203 8.85503 33.3175 10.7503 32.7443 13.7705C32.3302 15.9513 33.1611 17.8714 34.8693 18.6816C38.1744 20.2491 42.1281 17.7455 42.1283 14.0852C42.1285 12.0541 41.2342 10.6113 39.5747 9.96559Z" fill="#D1FFCD"/>
</g>
<defs>
<clipPath id="clip0_106_5">
<rect width="60" height="60" fill="white" transform="translate(0.589844 0.414062)"/>
</clipPath>
</defs>
</svg>
