<svg width="68" height="68" viewBox="0 0 68 68" fill="none" xmlns="http://www.w3.org/2000/svg">
<path d="M19.3235 37.1673C19.3235 37.9677 19.4047 38.6178 19.5591 39.0972C19.7298 39.5725 19.9491 40.0926 20.2498 40.6573C20.3457 40.8065 20.3978 40.9797 20.4001 41.1571C20.4001 41.3724 20.2701 41.5918 19.9938 41.8071L18.6287 42.7172C18.4648 42.8355 18.2699 42.9033 18.068 42.9122C17.8486 42.9122 17.6333 42.8066 17.418 42.6116C17.1259 42.2974 16.8647 41.9559 16.6379 41.5918C16.3976 41.1749 16.1753 40.7479 15.9716 40.312C14.2814 42.3069 12.1646 43.3063 9.61315 43.3063C7.79704 43.3063 6.34658 42.7822 5.29023 41.7421C4.22982 40.702 3.68945 39.3125 3.68945 37.5777C3.68945 35.7331 4.33952 34.238 5.65589 33.1085C6.97633 31.979 8.72744 31.4183 10.9539 31.4183C11.6852 31.4183 12.445 31.4833 13.2454 31.589C14.0458 31.6987 14.8705 31.8734 15.7319 32.0684V30.4838C15.7319 28.8343 15.3865 27.6845 14.7161 27.0141C14.0255 26.3397 12.8553 26.0147 11.1896 26.0147C10.4339 26.0147 9.65784 26.1041 8.85745 26.2991C8.06223 26.4883 7.28153 26.7341 6.52129 27.0345C6.27584 27.1456 6.02341 27.2406 5.76559 27.3189C5.65387 27.3558 5.53774 27.3776 5.42025 27.3839C5.11553 27.3839 4.9652 27.1645 4.9652 26.7094V25.6449C4.9652 25.2996 5.00583 25.0355 5.11553 24.8892C5.27925 24.6899 5.48818 24.5325 5.72496 24.4301C6.4766 24.0401 7.38668 23.7151 8.4471 23.455C9.50345 23.1706 10.6289 23.0447 11.8193 23.0447C14.3911 23.0447 16.2722 23.6297 17.483 24.7999C18.6734 25.97 19.2788 27.7495 19.2788 30.1385V37.1673H19.3194H19.3235ZM10.5436 40.4623C11.2546 40.4623 11.9899 40.3323 12.77 40.0723C13.5501 39.8122 14.2408 39.3328 14.8218 38.6828C15.1702 38.2836 15.4218 37.8095 15.5572 37.2973C15.6872 36.7732 15.7766 36.1475 15.7766 35.4081V34.498C15.1203 34.3389 14.4557 34.2168 13.7857 34.1323C13.1121 34.0452 12.4336 34.0004 11.7543 33.9982C10.3038 33.9982 9.24749 34.2827 8.53242 34.8677C7.81735 35.4528 7.47607 36.2775 7.47607 37.3623C7.47607 38.378 7.73203 39.1378 8.2724 39.6619C8.79245 40.2023 9.54814 40.4623 10.5436 40.4623ZM27.9043 42.8066C27.5143 42.8066 27.2542 42.7416 27.0836 42.5872C26.9089 42.4572 26.7586 42.1565 26.6285 41.7421L21.5499 24.9746C21.4511 24.6934 21.3857 24.4016 21.3549 24.1051C21.3549 23.7598 21.5255 23.5647 21.8709 23.5647H23.9917C24.398 23.5647 24.6824 23.6297 24.8327 23.7801C25.0074 23.9101 25.1375 24.2148 25.2675 24.6252L28.8997 38.9875L32.2719 24.6252C32.3775 24.1945 32.5075 23.9101 32.6822 23.7801C32.9418 23.6212 33.2439 23.546 33.5476 23.5647H35.2784C35.6847 23.5647 35.9691 23.6297 36.1398 23.7801C36.3145 23.9101 36.4648 24.2148 36.5542 24.6252L39.967 39.1622L43.7049 24.6252C43.7744 24.3106 43.9241 24.0195 44.1396 23.7801C44.3915 23.6208 44.6873 23.5454 44.9847 23.5647H46.9958C47.3412 23.5647 47.5362 23.7394 47.5362 24.1051C47.5362 24.2148 47.5118 24.3245 47.4956 24.4545C47.4605 24.6389 47.4088 24.8198 47.3412 24.9949L42.1285 41.7624C42.0025 42.1972 41.8481 42.4816 41.6775 42.6116C41.4321 42.7685 41.1435 42.8439 40.8527 42.8269H38.996C38.5856 42.8269 38.3053 42.7619 38.1306 42.6116C37.9559 42.4572 37.8056 42.1768 37.7202 41.7421L34.3684 27.7536L31.0368 41.7259C30.9311 42.1606 30.8011 42.4409 30.6305 42.5913C30.4558 42.7457 30.1511 42.8107 29.7651 42.8107H27.9043V42.8066ZM55.6863 43.3917C54.5643 43.3932 53.4461 43.2622 52.3548 43.0016C51.274 42.7416 50.433 42.4572 49.8683 42.1322C49.5229 41.9371 49.2873 41.7218 49.1979 41.5227C49.1155 41.3315 49.0727 41.1256 49.072 40.9174V39.8122C49.072 39.3572 49.2426 39.1378 49.5676 39.1378C49.7003 39.1381 49.8321 39.1601 49.9577 39.2028C50.0877 39.2475 50.2827 39.3328 50.498 39.4222C51.2294 39.7472 52.0338 40.0073 52.8748 40.182C53.7402 40.3526 54.5812 40.442 55.4466 40.442C56.8118 40.442 57.8681 40.2023 58.6035 39.7269C58.9568 39.5131 59.247 39.2094 59.4447 38.8468C59.6424 38.4843 59.7405 38.0758 59.7289 37.663C59.7362 37.3843 59.6883 37.1069 59.5879 36.8468C59.4875 36.5867 59.3366 36.349 59.1439 36.1475C58.7579 35.7331 58.0225 35.3634 56.9621 35.018L53.8255 34.0429C52.2491 33.5432 51.079 32.8038 50.368 31.8287C49.672 30.9277 49.2922 29.8225 49.2873 28.684C49.2873 27.7739 49.4823 26.9694 49.8683 26.2747C50.2583 25.584 50.7784 24.9746 51.4284 24.4951C52.0785 23.9995 52.8098 23.6297 53.6752 23.3697C54.5406 23.1097 55.4466 23 56.3974 23C56.8768 23 57.3724 23.0203 57.8478 23.0853C58.3435 23.1503 58.7985 23.2397 59.2536 23.3291C59.6842 23.4347 60.0986 23.5404 60.4846 23.6744C60.8747 23.8045 61.1753 23.9345 61.3947 24.0645C61.6497 24.1927 61.8721 24.3775 62.0448 24.6048C62.1838 24.8164 62.2508 25.0672 62.2357 25.3199V26.3397C62.2357 26.7947 62.0651 27.0345 61.7401 27.0345C61.4523 27.0016 61.1736 26.9133 60.9194 26.7744C59.6128 26.1953 58.196 25.9069 56.7671 25.9293C55.536 25.9293 54.5609 26.1244 53.8905 26.5388C53.2202 26.9451 52.8748 27.5789 52.8748 28.4687C52.8748 29.074 53.0902 29.5941 53.5249 30.0085C53.9556 30.4188 54.7559 30.8292 55.9017 31.1989L58.9732 32.174C60.5293 32.6737 61.6547 33.3685 62.3251 34.2583C62.9955 35.148 63.3165 36.1678 63.3165 37.2973C63.3165 38.2318 63.1255 39.0728 62.7558 39.8122C62.3731 40.5543 61.8355 41.2055 61.1794 41.7218C60.509 42.2622 59.7086 42.6563 58.7782 42.9366C57.8031 43.2413 56.7874 43.3917 55.6863 43.3917Z" fill="#15FF00"/>
<path fill-rule="evenodd" clip-rule="evenodd" d="M59.7694 53.9308C52.6594 59.2004 42.3234 61.9997 33.4378 61.9997C20.9851 61.9997 9.76337 57.3802 1.28818 49.7014C0.617805 49.0919 1.22318 48.2672 2.0195 48.7466C11.1894 54.0812 22.4965 57.3152 34.1976 57.3152C42.0837 57.3152 50.7539 55.6657 58.7334 52.2813C59.9238 51.7409 60.9396 53.0614 59.7694 53.9308Z" fill="#15FF00"/>
<path fill-rule="evenodd" clip-rule="evenodd" d="M62.7313 50.5461C61.8252 49.3801 56.7222 49.9855 54.4105 50.2658C53.7198 50.3552 53.6101 49.7457 54.2358 49.2907C58.2986 46.4264 64.9821 47.2511 65.7581 48.2059C66.5382 49.181 65.5428 55.8848 61.7359 59.0945C61.1549 59.5942 60.5942 59.3382 60.8542 58.6882C61.7155 56.5348 63.6414 51.7 62.7313 50.5502V50.5461Z" fill="#15FF00"/>
</svg>
