<svg width="67" height="52" viewBox="0 0 67 52" fill="none" xmlns="http://www.w3.org/2000/svg">
<path d="M30.9089 48.9837L46.6597 46.1986L46.8055 46.1657L38.7043 36.5261C35.9875 33.3112 33.2855 30.0839 30.5984 26.8441C30.5984 26.7971 38.9678 3.74952 39.0148 3.66955C43.6453 11.5969 48.2464 19.5413 52.8179 27.5028L66.6963 51.5665L66.8046 51.75L15.2992 51.7453L30.9089 48.9837ZM0 46.0481C0 46.034 3.81539 39.4053 8.4823 31.3182L16.9693 16.607L26.8583 8.30823C32.2967 3.74952 36.7613 0 36.7754 0C36.7404 0.139187 36.6882 0.273502 36.6202 0.399887L25.875 23.4333L15.3368 46.0528L7.66841 46.0622C3.44843 46.0669 0 46.0622 0 46.0481Z" fill="#15FF00"/>
</svg>
