<svg width="61" height="61" viewBox="0 0 61 61" fill="none" xmlns="http://www.w3.org/2000/svg">
<path d="M35.665 19.7828L31.579 12.0938C31.3706 11.7103 30.9663 11.4523 30.5009 11.4523C30.0355 11.4523 29.6312 11.7085 29.4264 12.0867L29.4228 12.0938L11.4815 43.716L35.665 19.7828ZM50 46.7626L44.9473 15.8455C44.8539 15.2712 44.3526 14.8365 43.7489 14.8365C43.4093 14.8365 43.1038 14.9725 42.8828 15.1934L11 46.7644L28.6394 56.5405C29.1533 56.8286 29.7678 57 30.4218 57C31.0759 57 31.6922 56.8303 32.2223 56.5317L32.2043 56.5405L50 46.7626ZM12.2901 38.6106L17.5997 5.01967C17.6914 4.44003 18.1945 4 18.8036 4C19.2672 4 19.6715 4.25448 19.8763 4.63089L19.8799 4.63796L25.5902 15.174L12.2901 38.6106Z" fill="#15FF00"/>
</svg>
