<svg width="63" height="64" viewBox="0 0 63 64" fill="none" xmlns="http://www.w3.org/2000/svg">
<path d="M36.4122 62.9368C34.7772 64.9958 31.4621 63.8676 31.4227 61.2386L30.8467 22.7861H56.7021C61.3852 22.7861 63.9971 28.1952 61.085 31.8629L36.4122 62.9368Z" fill="url(#paint0_linear_20_164)"/>
<path d="M36.4122 62.9368C34.7772 64.9958 31.4621 63.8676 31.4227 61.2386L30.8467 22.7861H56.7021C61.3852 22.7861 63.9971 28.1952 61.085 31.8629L36.4122 62.9368Z" fill="#15FF00"/>
<path d="M25.8969 1.06341C27.5319 -0.995773 30.8471 0.132512 30.8865 2.76156L31.1389 41.214H5.60708C0.923826 41.214 -1.68811 35.805 1.22408 32.1373L25.8969 1.06341Z" fill="#15FF00"/>
<defs>
<linearGradient id="paint0_linear_20_164" x1="30.8467" y1="31.312" x2="53.8261" y2="40.9495" gradientUnits="userSpaceOnUse">
<stop stop-color="#15FF00"/>
<stop offset="1" stop-color="#3ECF8E"/>
</linearGradient>
</defs>
</svg>
