<svg width="68" height="68" viewBox="0 0 68 68" fill="none" xmlns="http://www.w3.org/2000/svg">
<path d="M50.7164 51.929L39.7697 33.502L50.7164 15.067L56.0006 33.498L50.7143 51.9249L50.7164 51.929ZM26.3213 50.1595L12.5555 36.4979H34.4387L45.3813 54.9269L26.3192 50.1635L26.3213 50.1595ZM26.3213 16.8405L45.3813 12.0772L34.4408 30.5061H12.5535L26.3213 16.8405ZM61 27.2296L54.3246 3L29.4068 9.49417L25.7212 15.8236L18.2363 15.7687L0 33.502L18.2384 51.2374L25.7192 51.1784L29.4149 57.5079L54.3226 64L61 39.7806L57.2087 33.502L61 27.2296Z" fill="#15FF00"/>
</svg>
