<svg width="94" height="94" viewBox="0 0 94 94" fill="none" xmlns="http://www.w3.org/2000/svg">
<path fill-rule="evenodd" clip-rule="evenodd" d="M53.1787 11.2976C49.7665 7.88508 44.2334 7.88508 40.8212 11.2976L37.8869 14.2317L44.7368 21.0813C45.4585 20.8883 46.217 20.7854 47 20.7854C51.8261 20.7854 55.7382 24.6976 55.7382 29.5236C55.7382 30.3063 55.635 31.0651 55.4424 31.7869L64.3977 40.7421C65.1195 40.5494 65.878 40.4463 66.6609 40.4463C71.487 40.4463 75.3991 44.3584 75.3991 49.1845C75.3991 54.0106 71.487 57.9227 66.6609 57.9227C61.8348 57.9227 57.9227 54.0106 57.9227 49.1845C57.9227 48.4016 58.0258 47.6431 58.2185 46.9213L51.3691 40.0714V61.2764C53.9809 62.7873 55.7382 65.611 55.7382 68.8455C55.7382 73.6716 51.8261 77.5836 47 77.5836C42.1739 77.5836 38.2618 73.6716 38.2618 68.8455C38.2618 65.611 40.019 62.7873 42.6309 61.2764V37.0928C40.019 35.5819 38.2618 32.7579 38.2618 29.5236C38.2618 28.7408 38.3649 27.9821 38.5576 27.2602L31.7081 20.4105L11.2976 40.8212C7.88508 44.2334 7.88508 49.7665 11.2976 53.1787L40.8212 82.7025C44.2334 86.1148 49.7665 86.1148 53.1787 82.7025L82.7025 53.1787C86.1148 49.7665 86.1148 44.2334 82.7025 40.8212L53.1787 11.2976ZM34.6423 5.1187C41.4674 -1.70625 52.5325 -1.70623 59.3575 5.11874L88.8813 34.6423C95.7062 41.4674 95.7062 52.5325 88.8813 59.3575L59.3575 88.8813C52.5325 95.7062 41.4674 95.7062 34.6423 88.8813L5.1187 59.3575C-1.70625 52.5325 -1.70623 41.4674 5.11874 34.6423L34.6423 5.1187Z" fill="#15FF00"/>
</svg>
