<svg width="91" height="109" viewBox="0 0 91 109" fill="none" xmlns="http://www.w3.org/2000/svg">
<path d="M59.0417 45.417C54.0321 45.417 49.9583 49.4909 49.9583 54.5004H68.1248C68.1251 49.4909 64.0512 45.417 59.0417 45.417Z" fill="#15FF00"/>
<path d="M59.0416 36.3332C61.5486 36.3332 63.5832 34.2939 63.5832 31.7916C63.5832 29.2891 61.5486 27.25 59.0416 27.25C56.5346 27.25 54.5 29.2893 54.5 31.7916C54.5 34.2939 56.5346 36.3332 59.0416 36.3332Z" fill="#15FF00"/>
<path d="M86.2916 0H4.5416C2.03012 0 0 2.0346 0 4.5416V104.458C0 106.965 2.03012 109 4.5416 109H86.2916C88.8031 109 90.8332 106.965 90.8332 104.458V4.5416C90.8332 2.0346 88.8031 0 86.2916 0ZM18.1666 22.7084H27.25C29.7615 22.7084 31.7916 24.743 31.7916 27.25C31.7916 29.757 29.7615 31.7916 27.25 31.7916H18.1666C15.6551 31.7916 13.625 29.757 13.625 27.25C13.625 24.743 15.6551 22.7084 18.1666 22.7084ZM18.1666 36.3334H36.3332C38.8447 36.3334 40.8748 38.368 40.8748 40.875C40.8748 43.382 38.8447 45.4166 36.3332 45.4166H18.1666C15.6551 45.4166 13.625 43.382 13.625 40.875C13.625 38.368 15.6551 36.3334 18.1666 36.3334ZM18.1666 49.9584H22.7082C25.2197 49.9584 27.2498 51.993 27.2498 54.5C27.2498 57.007 25.2197 59.0416 22.7082 59.0416H18.1666C15.6551 59.0416 13.625 57.007 13.625 54.5C13.625 51.993 15.6551 49.9584 18.1666 49.9584ZM27.25 90.8334H18.1666C15.6551 90.8334 13.625 88.7988 13.625 86.2918C13.625 83.7848 15.6551 81.75 18.1666 81.75H27.25C29.7615 81.75 31.7916 83.7846 31.7916 86.2916C31.7916 88.7986 29.7615 90.8334 27.25 90.8334ZM72.6666 90.8334H40.875C38.3635 90.8334 36.3334 88.7988 36.3334 86.2918C36.3334 83.7848 38.3633 81.75 40.875 81.75H72.6666C75.1781 81.75 77.2082 83.7846 77.2082 86.2916C77.2082 88.7986 75.1781 90.8334 72.6666 90.8334ZM72.6666 77.2084H18.1666C15.6551 77.2084 13.625 75.1738 13.625 72.6668C13.625 70.1598 15.6551 68.1252 18.1666 68.1252H72.6666C75.1781 68.1252 77.2082 70.1598 77.2082 72.6668C77.2082 75.1736 75.1781 77.2084 72.6666 77.2084ZM77.2082 59.0416C77.2082 61.5486 75.1781 63.5832 72.6666 63.5832H45.4166C42.9051 63.5832 40.875 61.5486 40.875 59.0416V54.5C40.875 48.5459 43.7907 43.3047 48.228 39.9894C46.4885 37.7004 45.4168 34.88 45.4168 31.7916C45.4168 24.2797 51.53 18.1666 59.0418 18.1666C66.5536 18.1666 72.6668 24.2797 72.6668 31.7916C72.6668 34.88 71.5949 37.7004 69.8556 39.9894C74.2929 43.3047 77.2086 48.5459 77.2086 54.5V59.0416H77.2082Z" fill="#15FF00"/>
</svg>
