<svg width="108" height="117" viewBox="0 0 108 117" fill="none" xmlns="http://www.w3.org/2000/svg">
<path d="M78.3204 106.055H27.9106V116.999H78.3204V106.055Z" fill="#15FF00"/>
<path d="M84.5112 4.01919C84.5112 1.70083 84.5112 0.260742 84.5112 0.260742H52.6734H20.8354C20.8354 0.260742 20.8354 1.70083 20.8354 4.01919H0.811461H0.77042H0.715698V22.37C0.715698 28.911 3.05504 34.9495 7.30301 39.3742C11.6253 43.8764 17.6449 46.5876 25.2393 47.473C32.5088 58.8475 46.2265 65.1051 46.2265 70.3706C46.2265 77.5341 39.0626 89.7119 39.0626 89.7119V97.5211V97.5371V97.5922H66.2844V89.7119C66.2844 89.7119 59.1209 77.5341 59.1209 70.3706C59.1209 65.1409 72.6476 58.933 79.9545 47.7073C88.8827 47.2087 95.8561 44.4172 100.697 39.3744C104.945 34.9497 107.284 28.9112 107.284 22.3702V4.01919H84.5112ZM9.11748 22.3702V12.4207H20.8354C20.8354 19.3197 20.8354 27.6196 20.8354 32.9832C20.8354 34.5168 20.9966 35.9714 21.2437 37.3812C21.2807 37.6448 21.3026 37.9074 21.3454 38.1721C10.5035 35.0058 9.11748 26.4903 9.11748 22.3702ZM39.0095 33.6314L38.988 43.1427C33.7001 40.8617 28.795 33.3124 28.795 30.2907C28.795 27.2632 28.795 9.10485 28.795 9.10485H39.0095C39.0095 9.10485 39.0095 21.2461 39.0095 33.6314ZM98.8824 22.3702C98.8824 25.9846 97.8162 32.9795 90.2382 36.7809C88.4792 37.6573 86.3685 38.3591 83.8413 38.8053C84.2706 36.9724 84.5114 35.0362 84.5114 32.9832C84.5114 27.6196 84.5114 19.3197 84.5114 12.4207H98.8826V22.3702H98.8824Z" fill="#15FF00"/>
</svg>
