<svg width="112" height="102" viewBox="0 0 112 102" fill="none" xmlns="http://www.w3.org/2000/svg">
<path d="M56.115 0.125L49.6259 6.02788L49.198 5.63513L48.3539 4.8731H47.1639H12.6083H11.3539L10.4981 5.71134L8.75708 7.42887L7.99504 8.17919V9.20501V15.4068V16.4913L8.83915 17.2592L10.4336 18.7071L11.2718 19.4749H12.4676H13.9565V38.4791L0.0756836 51.1055L13.9565 63.7319V87.4666V88.9789L15.3927 89.7292L18.0012 91.1009L18.6636 91.4526H19.4374H28.4353H29.6487L30.4928 90.6613L36.9409 84.647L55.8805 101.875L72.7333 86.5462H74.7088C75.3705 86.5452 75.8899 86.2035 76.1156 85.6377V85.6265L76.1268 85.6205L76.7716 83.8971C76.9054 83.5343 76.8841 83.186 76.7482 82.8947L82.1059 78.0176L79.7904 84.7705C79.4743 85.7104 80.1602 86.5485 81.2383 86.5466C81.2415 86.5466 81.2415 86.5467 81.2447 86.5466H89.3634H89.3746C90 86.5426 90.4954 86.2318 90.7404 85.7084H90.7465V85.7024L91.4792 84.1197V84.1085L91.4853 84.1025C91.889 83.177 91.2566 82.3028 90.1841 82.2443L93.7422 72.0799H98.5665L94.1701 84.765L94.1641 84.771C93.848 85.7109 94.528 86.5489 95.6062 86.5471C95.6092 86.5471 95.6142 86.5471 95.6169 86.5471H104.527C104.53 86.5471 104.535 86.5471 104.538 86.5471C105.184 86.5481 105.701 86.2279 105.939 85.6795V85.6683L106.665 83.9449L106.671 83.9389V83.9329C107.054 82.9813 106.378 82.0938 105.265 82.0923H105.048L109.96 67.5725L109.971 67.549H109.96C110.106 67.1179 110.037 66.686 109.737 66.3238L108.067 64.278L108.056 64.2724L108.05 64.2613C107.755 63.9213 107.338 63.7442 106.866 63.7454V63.7398H106.825H100.494H100.476C100.057 63.7384 99.6844 63.8813 99.3919 64.156L99.3685 64.1672L99.3625 64.1783L97.6919 65.849H95.4878L111.924 50.8954L92.2697 33.0167L109.609 16.838L110.43 16.076V15.015V9.20589V8.11559L109.591 7.34769L107.85 5.76498L107.006 5.00295H105.811H70.827H69.7133L68.8867 5.68878L67.1399 7.14252L66.2079 7.92216V9.07108V9.30554L56.1138 0.125895L56.115 0.125ZM13.8686 10.1019H45.1475H45.9798L46.3902 10.477V14.34L46.2377 14.5041H43.8226H40.9503V17.1185V46.3105V52.5651L45.8449 48.1746L77.5986 19.6684L78.3606 18.9826L83.349 14.5041H76.3383H72.2291L71.9595 14.2462V10.2308H104.628L104.68 10.2837V13.9414L88.2028 29.3171L62.2641 53.5207L61.4493 54.1596L61.4381 54.1708L61.4317 54.1764C61.2752 54.3054 61.1575 54.4601 61.0741 54.6336L32.8786 80.9474L27.222 86.2231H20.2112L19.7071 85.9651V68.9658V33.2437V16.8598V14.2454H16.8289H13.7397V10.2242L13.8686 10.1019ZM63.9581 54.0071H68.3135L69.3334 54.9274L68.0204 59.019L66.7894 60.1503H62.0706L60.9041 59.0893L62.434 55.1971L63.9581 54.0071ZM55.3178 64.9688H65.8456L58.8759 83.4512H61.631L60.9803 85.3739H50.9624L58.0025 67.079H54.7374L55.3178 64.9688ZM87.1886 65.0332H92.3354L94.516 67.2079H98.3613L100.472 65.1035H106.861L108.532 67.1434L103.01 83.4511H105.261L104.534 85.1804H95.6063L100.618 70.7133H92.6343L88.1324 83.5918H90.0902L89.3634 85.1804H81.233L86.1745 70.7778H77.8214L73.3898 83.4511H75.3477L74.7029 85.1804H66.2794L73.0323 67.079H70.4179L71.1448 65.1035H79.0583L81.3795 67.2841H85.008L87.1886 65.0332Z" fill="#15FF00"/>
</svg>
