<?xml version="1.0" encoding="UTF-8"?><svg id="Layer_2" xmlns="http://www.w3.org/2000/svg" viewBox="0 0 418.48 107.97"><defs><style>.cls-1{fill:#f5dd38;}.cls-1,.cls-2{stroke-width:0px;}.cls-2{fill:#e6e6e6;}</style></defs><g id="Layer_1-2"><path class="cls-2" d="m66.72,21.16l-26.81,45.57v40.46h-13.1v-40.46L0,21.16h15.14l18.22,30.9,18.21-30.9h15.15Z"/><path class="cls-2" d="m75.68,99.01c-5.97-5.97-8.96-13.18-8.96-21.65V21.11h13.1v56.26c0,4.85,1.7,8.98,5.11,12.39,3.44,3.45,7.58,5.17,12.38,5.17s8.98-1.72,12.38-5.17c3.45-3.41,5.16-7.53,5.16-12.39V21.11h13.1v56.26c0,8.46-3,15.67-9.01,21.65-5.97,5.97-13.18,8.95-21.64,8.95s-15.63-2.98-21.64-8.95Z"/><path class="cls-2" d="m405.37,21.11v56.26c0,4.85-1.73,8.98-5.17,12.39-3.41,3.45-7.53,5.17-12.38,5.17s-8.93-1.72-12.39-5.17c-3.41-3.41-5.1-7.53-5.1-12.39V21.16h-16.05l-30.96,48.96c-1.87-3.38-4.38-6.19-7.57-8.38,3.88-4.57,5.83-9.88,5.83-15.93,0-6.77-2.41-12.58-7.22-17.43-4.81-4.81-10.62-7.21-17.43-7.21h-26.99v86.02h31.74c6.85,0,12.7-2.44,17.55-7.33,1.87-1.86,3.38-3.87,4.53-6.02l4.25-6.72,8.23-13.05,20.98-33.12v36.42c0,8.46,2.99,15.67,8.95,21.65,6.02,5.97,13.23,8.95,21.65,8.95s15.66-2.98,21.64-8.95c6.01-5.97,9.02-13.18,9.02-21.65V21.11h-13.1Zm-122.4,13.1h13.95c3.21,0,5.93,1.15,8.17,3.43,2.29,2.25,3.43,4.97,3.43,8.17s-1.14,5.93-3.43,8.18c-2.24,2.28-4.96,3.42-8.17,3.42h-13.95v-23.2Zm27.05,56.45c-2.33,2.32-5.1,3.49-8.35,3.49h-18.7v-23.69h18.7c3.25,0,6.03,1.17,8.35,3.49,2.29,2.28,3.43,5.05,3.43,8.29s-1.14,6.09-3.43,8.42Z"/><polygon class="cls-2" points="257.72 34.21 257.72 21.16 226.88 21.16 213.24 21.16 182.58 91.38 152.28 21.16 139.23 21.16 139.23 107.19 152.28 107.19 152.28 54.29 175.18 107.19 189.91 107.19 213.83 52.54 213.83 107.19 226.88 107.19 257.72 107.19 257.72 94.14 226.88 94.14 226.88 70.58 250.68 70.58 250.68 57.53 226.88 57.53 226.88 34.21 257.72 34.21"/><path class="cls-2" d="m352.55,80.4c0,3.71-3.01,6.72-6.72,6.72s-6.71-3.01-6.71-6.72,3-6.71,6.71-6.71,6.72,3,6.72,6.71Z"/><path class="cls-1" d="m14.99,0l18.37,31.15L51.72,0H14.99Z"/></g></svg>