<svg xmlns="http://www.w3.org/2000/svg" version="1.1" xmlns:xlink="http://www.w3.org/1999/xlink" xmlns:svgjs="http://svgjs.dev/svgjs" width="128" height="128" viewBox="0 0 128 128"><g transform="matrix(0.8046875,0,0,0.8046875,12.397656998304022,3.1533937499999922)"><svg viewBox="0 0 80 95" data-background-color="#000000" preserveAspectRatio="xMidYMid meet" height="152" width="128" xmlns="http://www.w3.org/2000/svg" xmlns:xlink="http://www.w3.org/1999/xlink"><g id="tight-bounds" transform="matrix(1,0,0,1,0.07948971005512817,-0.24049999999999727)"><svg viewBox="0 0 79.84102057988974 95.481" height="95.481" width="79.84102057988974"><g><svg viewBox="0 0 79.84102057988974 95.481" height="95.481" width="79.84102057988974"><g><svg viewBox="0 0 79.84102057988974 95.481" height="95.481" width="79.84102057988974"><g id="textblocktransform"><svg viewBox="0 0 79.84102057988974 95.481" height="95.481" width="79.84102057988974" id="textblock"><g><svg viewBox="0 0 79.84102057988974 95.481" height="95.481" width="79.84102057988974"><g><svg viewBox="0 0 79.84102057988974 95.481" height="95.481" width="79.84102057988974"><g><svg xmlns="http://www.w3.org/2000/svg" xmlns:xlink="http://www.w3.org/1999/xlink" version="1.1" x="0" y="0" viewBox="12 3.017 76.916 91.983" enable-background="new 0 0 100 100" xml:space="preserve" height="95.481" width="79.84102057988974" class="icon-icon-0" data-fill-palette-color="accent" id="icon-0"><path d="M53.644 18.966L12 25.106 41.048 95h45.5L53.644 18.966zM53.644 64.781c0 0-2.057 4.113-6.169 1.286 0 0-14.911-8.484-16.967-14.396 0 0-3.995-9.279 4.627-10.024 0 0 3.341 0.256 5.913 2.825 0 0 1.285-6.684 10.282-3.341 8.997 3.341 6.94 14.91 5.397 16.967L53.644 64.781z" fill="#000000" data-fill-palette-color="accent"></path><polygon fill="#000000" points="54.728,17.098 80.644,76.982 88.916,73.709 58.327,3.017 13.369,23.196 " data-fill-palette-color="accent"></polygon></svg></g></svg></g></svg></g></svg></g></svg></g><g></g></svg></g><defs></defs></svg><rect width="79.84102057988974" height="95.481" fill="none" stroke="none" visibility="hidden"></rect></g></svg></g></svg>